<svg xmlns="http://www.w3.org/2000/svg" xmlns:xlink="http://www.w3.org/1999/xlink" width="100" zoomAndPan="magnify" viewBox="0 0 75 74.999997" height="100" preserveAspectRatio="xMidYMid meet" version="1.0"><defs><clipPath id="c4efed99bb"><path d="M 30 33 L 45 33 L 45 38 L 30 38 Z M 30 33 " clip-rule="nonzero"/></clipPath><clipPath id="a37cb5ca47"><path d="M 30.796875 35.261719 L 38.296875 29.035156 L 44.523438 36.535156 L 37.023438 42.761719 Z M 30.796875 35.261719 " clip-rule="nonzero"/></clipPath><clipPath id="7e7ca9fc40"><path d="M 30.796875 35.261719 L 38.296875 29.035156 L 44.523438 36.535156 L 37.023438 42.761719 Z M 30.796875 35.261719 " clip-rule="nonzero"/></clipPath><clipPath id="5fb7f27eba"><path d="M 30.796875 35.261719 L 38.296875 29.035156 L 44.523438 36.535156 L 37.023438 42.761719 Z M 30.796875 35.261719 " clip-rule="nonzero"/></clipPath><clipPath id="615b95b218"><path d="M 34 7.726562 L 41 7.726562 L 41 14 L 34 14 Z M 34 7.726562 " clip-rule="nonzero"/></clipPath><clipPath id="3978a57485"><path d="M 9.449219 36 L 28 36 L 28 44 L 9.449219 44 Z M 9.449219 36 " clip-rule="nonzero"/></clipPath><clipPath id="3b11815fb2"><path d="M 47 36 L 65.699219 36 L 65.699219 44 L 47 44 Z M 47 36 " clip-rule="nonzero"/></clipPath><clipPath id="3300503512"><path d="M 38 54 L 49 54 L 49 67.726562 L 38 67.726562 Z M 38 54 " clip-rule="nonzero"/></clipPath><clipPath id="d494bf1c09"><path d="M 36 60 L 39 60 L 39 67.726562 L 36 67.726562 Z M 36 60 " clip-rule="nonzero"/></clipPath><clipPath id="63cf36a321"><path d="M 26 54 L 37 54 L 37 67.726562 L 26 67.726562 Z M 26 54 " clip-rule="nonzero"/></clipPath><clipPath id="4315a831c2"><path d="M 26.25 47.285156 L 48.75 47.285156 L 48.75 71.472656 L 26.25 71.472656 Z M 26.25 47.285156 " clip-rule="nonzero"/></clipPath><clipPath id="7d0b4a0f37"><path d="M 28.777344 33.871094 L 46.222656 33.871094 L 46.222656 51.316406 L 28.777344 51.316406 Z M 28.777344 33.871094 " clip-rule="nonzero"/></clipPath><clipPath id="2f15cdb1cb"><path d="M 37.5 33.871094 C 32.683594 33.871094 28.777344 37.777344 28.777344 42.59375 C 28.777344 47.410156 32.683594 51.316406 37.5 51.316406 C 42.316406 51.316406 46.222656 47.410156 46.222656 42.59375 C 46.222656 37.777344 42.316406 33.871094 37.5 33.871094 Z M 37.5 33.871094 " clip-rule="nonzero"/></clipPath><clipPath id="7e0334096a"><path d="M 29 35.136719 L 46 35.136719 L 46 47 L 29 47 Z M 29 35.136719 " clip-rule="nonzero"/></clipPath><clipPath id="d127520542"><path d="M 23.0625 53 L 52 53 L 52 65.136719 L 23.0625 65.136719 Z M 23.0625 53 " clip-rule="nonzero"/></clipPath></defs><g clip-path="url(#c4efed99bb)"><g clip-path="url(#a37cb5ca47)"><g clip-path="url(#7e7ca9fc40)"><g clip-path="url(#5fb7f27eba)"><path fill="#000000" d="M 44.523438 36.535156 L 43.691406 37.226562 C 40.640625 33.550781 35.164062 33.042969 31.488281 36.09375 L 30.796875 35.261719 C 34.933594 31.828125 41.089844 32.398438 44.523438 36.535156 Z M 44.523438 36.535156 " fill-opacity="1" fill-rule="nonzero"/></g></g></g></g><path fill="#d4a168" d="M 59.191406 9.933594 L 59.191406 11.726562 L 41.949219 11.726562 C 42.007812 11.433594 42.035156 11.136719 42.035156 10.832031 C 42.035156 10.523438 42.007812 10.226562 41.945312 9.933594 Z M 59.191406 9.933594 " fill-opacity="1" fill-rule="nonzero"/><path fill="#d4a168" d="M 32.972656 10.828125 C 32.972656 11.132812 33.003906 11.433594 33.0625 11.722656 L 15.820312 11.722656 L 15.820312 9.933594 L 33.0625 9.933594 C 33.003906 10.222656 32.972656 10.523438 32.972656 10.828125 Z M 32.972656 10.828125 " fill-opacity="1" fill-rule="nonzero"/><g clip-path="url(#615b95b218)"><path fill="#d4a168" d="M 40.609375 10.828125 C 40.609375 11.304688 40.5 11.753906 40.308594 12.160156 C 40.191406 12.402344 40.046875 12.628906 39.871094 12.832031 C 39.304688 13.503906 38.453125 13.929688 37.503906 13.929688 C 36.558594 13.929688 35.707031 13.503906 35.140625 12.832031 C 34.964844 12.628906 34.820312 12.402344 34.703125 12.160156 C 34.511719 11.753906 34.402344 11.304688 34.402344 10.828125 C 34.402344 10.351562 34.511719 9.902344 34.703125 9.496094 C 35.203125 8.453125 36.269531 7.726562 37.503906 7.726562 C 38.742188 7.726562 39.808594 8.453125 40.308594 9.496094 C 40.5 9.902344 40.609375 10.351562 40.609375 10.828125 Z M 40.609375 10.828125 " fill-opacity="1" fill-rule="nonzero"/></g><g clip-path="url(#3978a57485)"><path fill="#d4a168" d="M 27.433594 36.535156 C 27.011719 40.472656 23.144531 43.566406 18.457031 43.566406 C 13.765625 43.566406 9.902344 40.472656 9.480469 36.535156 Z M 27.433594 36.535156 " fill-opacity="1" fill-rule="nonzero"/></g><path fill="#d4a168" d="M 39.710938 14.785156 L 39.710938 33.984375 C 39.617188 33.964844 39.527344 33.945312 39.429688 33.929688 C 38.121094 33.710938 36.664062 33.953125 35.300781 34.539062 L 35.300781 14.785156 C 35.953125 15.152344 36.703125 15.359375 37.503906 15.359375 C 38.304688 15.359375 39.058594 15.152344 39.710938 14.785156 Z M 39.710938 14.785156 " fill-opacity="1" fill-rule="nonzero"/><g clip-path="url(#3b11815fb2)"><path fill="#d4a168" d="M 65.53125 36.535156 C 65.109375 40.472656 61.246094 43.566406 56.554688 43.566406 C 51.863281 43.566406 48 40.472656 47.578125 36.535156 Z M 65.53125 36.535156 " fill-opacity="1" fill-rule="nonzero"/></g><path fill="#d4a168" d="M 43.503906 42.039062 C 43.003906 40.160156 42.207031 39.605469 41.996094 39.488281 C 41.765625 39.359375 41.488281 39.367188 41.265625 39.507812 C 38.871094 41.015625 37.019531 40.3125 35.53125 39.75 C 34.4375 39.339844 33.195312 38.871094 32.433594 40.039062 C 32.355469 40.160156 32.316406 40.296875 32.316406 40.441406 C 32.335938 41.574219 32.09375 42.667969 31.84375 43.480469 C 31.035156 41.589844 31.578125 39.960938 32.265625 38.855469 C 32.898438 37.832031 33.855469 36.953125 34.929688 36.320312 C 36.042969 35.664062 37.292969 35.28125 38.4375 35.28125 C 38.695312 35.28125 38.949219 35.300781 39.199219 35.339844 C 39.539062 35.398438 39.855469 35.492188 40.148438 35.625 C 40.148438 35.625 40.152344 35.628906 40.152344 35.628906 C 41.195312 36.109375 41.90625 37.074219 42.226562 38.46875 C 42.265625 38.636719 42.363281 38.785156 42.503906 38.886719 C 43.539062 39.632812 43.675781 40.878906 43.503906 42.039062 Z M 43.503906 42.039062 " fill-opacity="1" fill-rule="nonzero"/><path fill="#d4a168" d="M 42.480469 45.160156 L 42.480469 45.164062 C 42.421875 47.628906 41.53125 49.304688 40.34375 50.265625 C 40.285156 50.296875 40.230469 50.339844 40.183594 50.386719 C 39.386719 50.980469 38.472656 51.261719 37.589844 51.261719 L 37.582031 51.261719 C 36.652344 51.261719 35.6875 50.945312 34.859375 50.285156 C 34.859375 50.28125 34.859375 50.28125 34.859375 50.28125 C 34.808594 50.222656 34.746094 50.167969 34.675781 50.128906 C 34.675781 50.128906 34.671875 50.125 34.671875 50.125 C 33.585938 49.160156 32.78125 47.570312 32.699219 45.285156 C 32.945312 44.726562 33.707031 42.847656 33.742188 40.738281 C 33.914062 40.695312 34.257812 40.796875 35.023438 41.089844 C 36.53125 41.65625 38.761719 42.5 41.523438 41.011719 C 41.855469 41.488281 42.398438 42.644531 42.480469 45.160156 Z M 42.480469 45.160156 " fill-opacity="1" fill-rule="nonzero"/><path fill="#d4a168" d="M 39.984375 52.167969 L 39.984375 53.328125 L 37.503906 55.859375 L 35.03125 53.328125 L 35.03125 52.089844 C 35.847656 52.492188 36.726562 52.691406 37.582031 52.691406 L 37.589844 52.691406 C 38.390625 52.691406 39.210938 52.519531 39.984375 52.167969 Z M 39.984375 52.167969 " fill-opacity="1" fill-rule="nonzero"/><path fill="#d4a168" d="M 36.496094 56.867188 L 35.6875 57.65625 C 35.664062 57.679688 35.640625 57.703125 35.621094 57.722656 L 35.492188 57.847656 L 33.085938 54.335938 L 34.015625 54.335938 Z M 36.496094 56.867188 " fill-opacity="1" fill-rule="nonzero"/><path fill="#d4a168" d="M 41.925781 54.335938 L 39.519531 57.851562 L 39.390625 57.726562 C 39.371094 57.703125 39.347656 57.679688 39.324219 57.660156 L 38.515625 56.867188 L 40.996094 54.335938 Z M 41.925781 54.335938 " fill-opacity="1" fill-rule="nonzero"/><path fill="#d4a168" d="M 57.503906 13.152344 L 63.851562 35.109375 L 62.359375 35.109375 L 56.554688 15.011719 L 50.75 35.109375 L 49.261719 35.109375 L 55.605469 13.152344 Z M 57.503906 13.152344 " fill-opacity="1" fill-rule="nonzero"/><g clip-path="url(#3300503512)"><path fill="#d4a168" d="M 48.535156 60.191406 L 48.535156 67.726562 L 45.246094 67.726562 L 45.246094 60.121094 C 45.246094 59.726562 44.925781 59.40625 44.53125 59.40625 C 44.136719 59.40625 43.816406 59.726562 43.816406 60.121094 L 43.816406 67.726562 L 39.890625 67.726562 L 38.828125 59.761719 L 39.039062 59.375 L 39.128906 59.464844 C 39.265625 59.597656 39.441406 59.667969 39.628906 59.667969 C 39.652344 59.667969 39.675781 59.667969 39.699219 59.664062 C 39.90625 59.644531 40.101562 59.53125 40.21875 59.359375 L 43.605469 54.40625 C 46.398438 54.855469 48.535156 57.277344 48.535156 60.191406 Z M 48.535156 60.191406 " fill-opacity="1" fill-rule="nonzero"/></g><g clip-path="url(#d494bf1c09)"><path fill="#d4a168" d="M 38.453125 67.726562 L 36.558594 67.726562 L 37.503906 60.625 Z M 38.453125 67.726562 " fill-opacity="1" fill-rule="nonzero"/></g><path fill="#d4a168" d="M 37.503906 57.875 L 37.976562 58.339844 L 37.667969 58.914062 L 37.34375 58.914062 L 37.035156 58.339844 Z M 37.503906 57.875 " fill-opacity="1" fill-rule="nonzero"/><g clip-path="url(#63cf36a321)"><path fill="#d4a168" d="M 36.179688 59.761719 L 35.121094 67.726562 L 31.195312 67.726562 L 31.195312 60.121094 C 31.195312 59.726562 30.875 59.40625 30.480469 59.40625 C 30.085938 59.40625 29.765625 59.726562 29.765625 60.121094 L 29.765625 67.726562 L 26.476562 67.726562 L 26.476562 60.191406 C 26.476562 57.277344 28.613281 54.855469 31.402344 54.40625 L 34.792969 59.359375 C 34.910156 59.53125 35.101562 59.644531 35.3125 59.664062 C 35.335938 59.667969 35.359375 59.667969 35.382812 59.667969 C 35.566406 59.667969 35.746094 59.597656 35.878906 59.464844 L 35.972656 59.375 Z M 36.179688 59.761719 " fill-opacity="1" fill-rule="nonzero"/></g><path fill="#d4a168" d="M 19.40625 13.152344 L 25.75 35.109375 L 24.261719 35.109375 L 18.457031 15.011719 L 12.652344 35.109375 L 11.160156 35.109375 L 17.507812 13.152344 Z M 19.40625 13.152344 " fill-opacity="1" fill-rule="nonzero"/><g clip-path="url(#4315a831c2)"><path fill="#000000" d="M 26.25 47.285156 L 48.75 47.285156 L 48.75 71.457031 L 26.25 71.457031 Z M 26.25 47.285156 " fill-opacity="1" fill-rule="nonzero"/></g><g clip-path="url(#7d0b4a0f37)"><g clip-path="url(#2f15cdb1cb)"><path fill="#000000" d="M 28.777344 33.871094 L 46.222656 33.871094 L 46.222656 51.316406 L 28.777344 51.316406 Z M 28.777344 33.871094 " fill-opacity="1" fill-rule="nonzero"/></g></g><path fill="#d4a168" d="M 30.902344 46.863281 C 31.511719 50 34.226562 52.359375 37.515625 52.359375 C 40.808594 52.359375 43.523438 50 44.132812 46.863281 C 43.730469 46.921875 43.226562 46.980469 42.578125 47.046875 C 41.304688 47.171875 39.59375 47.28125 37.515625 47.28125 C 35.4375 47.28125 33.71875 47.171875 32.449219 47.046875 C 31.808594 46.980469 31.304688 46.921875 30.902344 46.863281 Z M 30.902344 46.863281 " fill-opacity="1" fill-rule="evenodd"/><g clip-path="url(#7e0334096a)"><path fill="#d4a168" d="M 37.519531 35.144531 C 36.140625 35.144531 35.035156 36.035156 35.035156 37.140625 L 35.035156 39.082031 C 35.035156 39.75 34.328125 39.78125 34.144531 39.113281 L 33.765625 37.761719 C 32.101562 38.898438 31.042969 40.730469 30.886719 42.746094 C 30.007812 42.71875 29.390625 43.339844 29.390625 44.113281 C 29.390625 44.816406 29.722656 45.324219 30.3125 45.480469 C 30.824219 45.617188 33.449219 46.039062 37.519531 46.039062 C 41.585938 46.039062 44.214844 45.617188 44.722656 45.480469 C 45.3125 45.324219 45.648438 44.816406 45.648438 44.113281 C 45.648438 43.339844 45.027344 42.71875 44.148438 42.746094 C 43.992188 40.730469 42.933594 38.898438 41.265625 37.761719 L 40.890625 39.113281 C 40.707031 39.78125 40 39.75 40 39.082031 L 40 37.140625 C 40 36.035156 38.894531 35.144531 37.519531 35.144531 Z M 37.519531 35.144531 " fill-opacity="1" fill-rule="evenodd"/></g><g clip-path="url(#d127520542)"><path fill="#d4a168" d="M 29.328125 60.386719 L 45.707031 60.386719 L 45.707031 63.289062 C 43.332031 63.589844 39.644531 63.828125 37.519531 63.828125 C 35.390625 63.828125 31.703125 63.589844 29.328125 63.289062 Z M 41.699219 53.171875 L 37.929688 56.046875 C 37.679688 56.242188 37.347656 56.242188 37.09375 56.046875 L 33.332031 53.175781 L 31.714844 53.824219 L 31.714844 58.875 L 29.328125 58.875 L 29.328125 54.78125 L 26.699219 55.835938 C 25.578125 56.285156 25.167969 56.882812 24.855469 57.816406 L 23.527344 61.796875 C 23.25 62.988281 23.835938 63.4375 24.371094 63.601562 C 26.648438 64.113281 33.101562 65.132812 37.519531 65.132812 C 41.933594 65.132812 48.386719 64.113281 50.664062 63.601562 C 51.199219 63.4375 51.785156 62.988281 51.507812 61.796875 L 50.175781 57.816406 C 49.867188 56.882812 49.453125 56.285156 48.332031 55.835938 L 45.707031 54.78125 L 45.707031 58.875 L 43.320312 58.875 L 43.320312 53.824219 Z M 41.699219 53.171875 " fill-opacity="1" fill-rule="nonzero"/></g></svg>