<svg xmlns="http://www.w3.org/2000/svg" xmlns:xlink="http://www.w3.org/1999/xlink" width="100" zoomAndPan="magnify" viewBox="0 0 75 74.999997" height="100" preserveAspectRatio="xMidYMid meet" version="1.0"><defs><clipPath id="f66000a03d"><path d="M 34 7.5 L 41 7.5 L 41 14 L 34 14 Z M 34 7.5 " clip-rule="nonzero"/></clipPath><clipPath id="f834e2199d"><path d="M 9.449219 36 L 28 36 L 28 44 L 9.449219 44 Z M 9.449219 36 " clip-rule="nonzero"/></clipPath><clipPath id="6670588df0"><path d="M 47 36 L 65.699219 36 L 65.699219 44 L 47 44 Z M 47 36 " clip-rule="nonzero"/></clipPath><clipPath id="ae57879392"><path d="M 38 54 L 49 54 L 49 67.5 L 38 67.5 Z M 38 54 " clip-rule="nonzero"/></clipPath><clipPath id="888e80bb1e"><path d="M 36 60 L 39 60 L 39 67.5 L 36 67.5 Z M 36 60 " clip-rule="nonzero"/></clipPath><clipPath id="faa24d8788"><path d="M 26 54 L 37 54 L 37 67.5 L 26 67.5 Z M 26 54 " clip-rule="nonzero"/></clipPath><clipPath id="95763807af"><path d="M 26.25 44.9375 L 48.75 44.9375 L 48.75 69.125 L 26.25 69.125 Z M 26.25 44.9375 " clip-rule="nonzero"/></clipPath><clipPath id="0c6c7e5776"><path d="M 28.777344 33.855469 L 46.222656 33.855469 L 46.222656 51.300781 L 28.777344 51.300781 Z M 28.777344 33.855469 " clip-rule="nonzero"/></clipPath><clipPath id="ca316cba32"><path d="M 37.5 33.855469 C 32.683594 33.855469 28.777344 37.761719 28.777344 42.578125 C 28.777344 47.394531 32.683594 51.300781 37.5 51.300781 C 42.316406 51.300781 46.222656 47.394531 46.222656 42.578125 C 46.222656 37.761719 42.316406 33.855469 37.5 33.855469 Z M 37.5 33.855469 " clip-rule="nonzero"/></clipPath><clipPath id="f4c5df056c"><path d="M 25.171875 47 L 49.921875 47 L 49.921875 60.75 L 25.171875 60.75 Z M 25.171875 47 " clip-rule="nonzero"/></clipPath></defs><path fill="#d4a168" d="M 59.191406 9.707031 L 59.191406 11.5 L 41.949219 11.5 C 42.007812 11.207031 42.035156 10.910156 42.035156 10.605469 C 42.035156 10.296875 42.007812 10 41.945312 9.707031 Z M 59.191406 9.707031 " fill-opacity="1" fill-rule="nonzero"/><path fill="#d4a168" d="M 32.972656 10.601562 C 32.972656 10.910156 33.003906 11.207031 33.0625 11.496094 L 15.820312 11.496094 L 15.820312 9.707031 L 33.0625 9.707031 C 33.003906 9.996094 32.972656 10.296875 32.972656 10.601562 Z M 32.972656 10.601562 " fill-opacity="1" fill-rule="nonzero"/><g clip-path="url(#f66000a03d)"><path fill="#d4a168" d="M 40.609375 10.601562 C 40.609375 11.078125 40.5 11.53125 40.308594 11.933594 C 40.191406 12.175781 40.046875 12.402344 39.871094 12.605469 C 39.304688 13.277344 38.453125 13.707031 37.503906 13.707031 C 36.558594 13.707031 35.707031 13.277344 35.140625 12.605469 C 34.964844 12.402344 34.820312 12.175781 34.703125 11.933594 C 34.511719 11.53125 34.402344 11.078125 34.402344 10.601562 C 34.402344 10.128906 34.511719 9.675781 34.703125 9.273438 C 35.203125 8.226562 36.269531 7.5 37.503906 7.5 C 38.742188 7.5 39.808594 8.226562 40.308594 9.273438 C 40.5 9.675781 40.609375 10.128906 40.609375 10.601562 Z M 40.609375 10.601562 " fill-opacity="1" fill-rule="nonzero"/></g><g clip-path="url(#f834e2199d)"><path fill="#d4a168" d="M 27.433594 36.3125 C 27.011719 40.246094 23.144531 43.339844 18.457031 43.339844 C 13.765625 43.339844 9.902344 40.246094 9.480469 36.3125 Z M 27.433594 36.3125 " fill-opacity="1" fill-rule="nonzero"/></g><path fill="#d4a168" d="M 39.710938 14.558594 L 39.710938 33.757812 C 39.617188 33.738281 39.527344 33.71875 39.429688 33.703125 C 38.121094 33.488281 36.664062 33.726562 35.300781 34.3125 L 35.300781 14.558594 C 35.953125 14.925781 36.703125 15.132812 37.503906 15.132812 C 38.304688 15.132812 39.058594 14.925781 39.710938 14.558594 Z M 39.710938 14.558594 " fill-opacity="1" fill-rule="nonzero"/><g clip-path="url(#6670588df0)"><path fill="#d4a168" d="M 65.53125 36.3125 C 65.109375 40.246094 61.246094 43.339844 56.554688 43.339844 C 51.863281 43.339844 48 40.246094 47.578125 36.3125 Z M 65.53125 36.3125 " fill-opacity="1" fill-rule="nonzero"/></g><path fill="#d4a168" d="M 43.503906 41.8125 C 43.003906 39.933594 42.207031 39.378906 41.996094 39.261719 C 41.765625 39.136719 41.488281 39.140625 41.265625 39.28125 C 38.871094 40.789062 37.019531 40.089844 35.53125 39.527344 C 34.4375 39.113281 33.195312 38.644531 32.433594 39.8125 C 32.355469 39.933594 32.316406 40.074219 32.316406 40.214844 C 32.335938 41.347656 32.09375 42.441406 31.84375 43.253906 C 31.035156 41.363281 31.578125 39.734375 32.265625 38.628906 C 32.898438 37.605469 33.855469 36.726562 34.929688 36.09375 C 36.042969 35.4375 37.292969 35.054688 38.4375 35.054688 C 38.695312 35.054688 38.949219 35.074219 39.199219 35.117188 C 39.539062 35.171875 39.855469 35.265625 40.148438 35.398438 C 40.148438 35.398438 40.152344 35.402344 40.152344 35.402344 C 41.195312 35.882812 41.90625 36.847656 42.226562 38.242188 C 42.265625 38.414062 42.363281 38.558594 42.503906 38.664062 C 43.539062 39.410156 43.675781 40.652344 43.503906 41.8125 Z M 43.503906 41.8125 " fill-opacity="1" fill-rule="nonzero"/><path fill="#d4a168" d="M 42.480469 44.933594 L 42.480469 44.941406 C 42.421875 47.402344 41.53125 49.078125 40.34375 50.039062 C 40.285156 50.070312 40.230469 50.113281 40.183594 50.160156 C 39.386719 50.753906 38.472656 51.035156 37.589844 51.035156 L 37.582031 51.035156 C 36.652344 51.035156 35.6875 50.71875 34.859375 50.058594 C 34.808594 49.996094 34.746094 49.945312 34.675781 49.902344 C 34.675781 49.902344 34.671875 49.902344 34.671875 49.898438 C 33.585938 48.933594 32.78125 47.34375 32.699219 45.058594 C 32.945312 44.5 33.707031 42.625 33.742188 40.511719 C 33.914062 40.46875 34.257812 40.570312 35.023438 40.863281 C 36.53125 41.429688 38.761719 42.273438 41.523438 40.785156 C 41.855469 41.261719 42.398438 42.417969 42.480469 44.933594 Z M 42.480469 44.933594 " fill-opacity="1" fill-rule="nonzero"/><path fill="#d4a168" d="M 39.984375 51.941406 L 39.984375 53.101562 L 37.503906 55.632812 L 35.03125 53.105469 L 35.03125 51.863281 C 35.847656 52.265625 36.726562 52.464844 37.582031 52.464844 L 37.589844 52.464844 C 38.390625 52.464844 39.210938 52.292969 39.984375 51.941406 Z M 39.984375 51.941406 " fill-opacity="1" fill-rule="nonzero"/><path fill="#d4a168" d="M 36.496094 56.640625 L 35.6875 57.429688 C 35.664062 57.453125 35.640625 57.476562 35.621094 57.5 L 35.492188 57.625 L 33.085938 54.109375 L 34.015625 54.109375 Z M 36.496094 56.640625 " fill-opacity="1" fill-rule="nonzero"/><path fill="#d4a168" d="M 41.925781 54.109375 L 39.519531 57.625 L 39.390625 57.5 C 39.371094 57.476562 39.347656 57.453125 39.324219 57.433594 L 38.515625 56.644531 L 40.996094 54.109375 Z M 41.925781 54.109375 " fill-opacity="1" fill-rule="nonzero"/><path fill="#d4a168" d="M 57.503906 12.925781 L 63.851562 34.882812 L 62.359375 34.882812 L 56.554688 14.785156 L 50.75 34.882812 L 49.261719 34.882812 L 55.605469 12.925781 Z M 57.503906 12.925781 " fill-opacity="1" fill-rule="nonzero"/><g clip-path="url(#ae57879392)"><path fill="#d4a168" d="M 48.535156 59.964844 L 48.535156 67.5 L 45.246094 67.5 L 45.246094 59.898438 C 45.246094 59.5 44.925781 59.183594 44.53125 59.183594 C 44.136719 59.183594 43.816406 59.5 43.816406 59.898438 L 43.816406 67.5 L 39.890625 67.5 L 38.828125 59.535156 L 39.039062 59.148438 L 39.128906 59.238281 C 39.265625 59.371094 39.441406 59.441406 39.628906 59.441406 C 39.652344 59.441406 39.675781 59.441406 39.699219 59.4375 C 39.90625 59.417969 40.101562 59.304688 40.21875 59.132812 L 43.605469 54.179688 C 46.398438 54.628906 48.535156 57.054688 48.535156 59.964844 Z M 48.535156 59.964844 " fill-opacity="1" fill-rule="nonzero"/></g><g clip-path="url(#888e80bb1e)"><path fill="#d4a168" d="M 38.453125 67.5 L 36.558594 67.5 L 37.503906 60.398438 Z M 38.453125 67.5 " fill-opacity="1" fill-rule="nonzero"/></g><path fill="#d4a168" d="M 37.503906 57.648438 L 37.976562 58.113281 L 37.667969 58.6875 L 37.34375 58.6875 L 37.035156 58.113281 Z M 37.503906 57.648438 " fill-opacity="1" fill-rule="nonzero"/><g clip-path="url(#faa24d8788)"><path fill="#d4a168" d="M 36.179688 59.535156 L 35.121094 67.5 L 31.195312 67.5 L 31.195312 59.898438 C 31.195312 59.5 30.875 59.183594 30.480469 59.183594 C 30.085938 59.183594 29.765625 59.5 29.765625 59.898438 L 29.765625 67.5 L 26.476562 67.5 L 26.476562 59.964844 C 26.476562 57.054688 28.613281 54.628906 31.402344 54.179688 L 34.792969 59.132812 C 34.910156 59.304688 35.101562 59.417969 35.3125 59.4375 C 35.335938 59.441406 35.359375 59.441406 35.382812 59.441406 C 35.566406 59.441406 35.746094 59.371094 35.878906 59.238281 L 35.972656 59.148438 Z M 36.179688 59.535156 " fill-opacity="1" fill-rule="nonzero"/></g><path fill="#d4a168" d="M 19.40625 12.925781 L 25.75 34.882812 L 24.261719 34.882812 L 18.457031 14.785156 L 12.652344 34.882812 L 11.160156 34.882812 L 17.507812 12.925781 Z M 19.40625 12.925781 " fill-opacity="1" fill-rule="nonzero"/><g clip-path="url(#95763807af)"><path fill="#000000" d="M 26.25 44.9375 L 48.75 44.9375 L 48.75 69.109375 L 26.25 69.109375 Z M 26.25 44.9375 " fill-opacity="1" fill-rule="nonzero"/></g><g clip-path="url(#0c6c7e5776)"><g clip-path="url(#ca316cba32)"><path fill="#000000" d="M 28.777344 33.855469 L 46.222656 33.855469 L 46.222656 51.300781 L 28.777344 51.300781 Z M 28.777344 33.855469 " fill-opacity="1" fill-rule="nonzero"/></g></g><g clip-path="url(#f4c5df056c)"><path fill="#d4a168" d="M 44.246094 47.109375 C 43.976562 48.410156 43.332031 49.605469 42.363281 50.570312 C 41.0625 51.871094 39.332031 52.589844 37.503906 52.59375 L 37.464844 52.59375 C 35.640625 52.585938 33.921875 51.871094 32.621094 50.570312 C 31.65625 49.605469 31.007812 48.40625 30.742188 47.109375 C 27.519531 48.074219 25.171875 51.058594 25.171875 54.597656 L 25.171875 58.609375 C 25.171875 59.734375 26.085938 60.644531 27.207031 60.644531 L 47.777344 60.644531 C 48.902344 60.644531 49.8125 59.734375 49.8125 58.609375 L 49.8125 54.597656 C 49.816406 51.0625 47.472656 48.074219 44.246094 47.109375 Z M 44.246094 47.109375 " fill-opacity="1" fill-rule="nonzero"/></g><path fill="#d4a168" d="M 30.414062 45.058594 C 30.707031 45.75 30.964844 46.003906 31.375 46.019531 C 31.542969 49.238281 34.230469 51.820312 37.496094 51.828125 C 39.179688 51.828125 40.714844 51.136719 41.824219 50.027344 C 42.863281 48.988281 43.53125 47.582031 43.613281 46.023438 C 44.015625 46.003906 44.277344 45.753906 44.574219 45.0625 L 45.128906 43.441406 C 45.253906 42.949219 44.949219 42.445312 44.449219 42.324219 L 44.121094 42.246094 L 44.109375 42.246094 C 45.261719 38.398438 43.09375 36.589844 41.871094 36.925781 C 40.847656 36.332031 39.398438 36 37.496094 36 C 35.59375 36 34.144531 36.332031 33.113281 36.917969 C 31.890625 36.582031 29.722656 38.394531 30.875 42.234375 L 30.867188 42.234375 L 30.535156 42.3125 C 30.042969 42.433594 29.738281 42.933594 29.855469 43.433594 Z M 41.0625 37.542969 C 41.050781 37.5625 41.039062 37.582031 41.023438 37.601562 C 40.570312 38.371094 41.257812 39.09375 41.71875 39.535156 C 42.265625 40.050781 42.523438 40.570312 42.625 41.648438 C 42.644531 41.867188 42.660156 42.105469 42.671875 42.378906 C 42.675781 42.554688 42.621094 43.152344 42.644531 43.34375 C 42.660156 43.441406 42.675781 43.53125 42.695312 43.609375 L 42.695312 45.699219 C 42.695312 45.714844 42.695312 45.730469 42.695312 45.746094 C 42.683594 47.109375 42.144531 48.402344 41.167969 49.371094 C 40.179688 50.359375 38.878906 50.898438 37.5 50.898438 L 37.496094 50.898438 C 36.109375 50.898438 34.808594 50.359375 33.824219 49.371094 C 32.847656 48.394531 32.304688 47.109375 32.296875 45.746094 C 32.296875 45.730469 32.296875 45.714844 32.296875 45.699219 L 32.296875 43.609375 C 32.316406 43.53125 32.328125 43.441406 32.34375 43.339844 C 32.367188 43.148438 32.316406 42.550781 32.320312 42.375 C 32.328125 42.101562 32.34375 41.859375 32.363281 41.644531 C 32.46875 40.5625 32.722656 40.046875 33.269531 39.527344 C 33.734375 39.089844 34.425781 38.367188 33.964844 37.597656 C 33.957031 37.578125 33.941406 37.558594 33.925781 37.539062 C 34.824219 37.132812 36.027344 36.921875 37.496094 36.921875 C 38.96875 36.921875 40.171875 37.132812 41.0625 37.542969 Z M 41.0625 37.542969 " fill-opacity="1" fill-rule="nonzero"/><path fill="#d4a168" d="M 33.417969 47.863281 C 33.417969 47.863281 33.976562 49.449219 36.714844 48.882812 C 37.070312 48.808594 37.316406 48.707031 37.496094 48.589844 C 37.671875 48.707031 37.917969 48.808594 38.273438 48.882812 C 41.015625 49.445312 41.570312 47.863281 41.570312 47.863281 C 41.015625 48.042969 40.375 47.28125 39.292969 47.019531 C 38.578125 46.847656 37.882812 47.273438 37.496094 47.578125 C 37.105469 47.273438 36.410156 46.847656 35.695312 47.019531 C 34.617188 47.277344 33.976562 48.035156 33.417969 47.863281 Z M 33.417969 47.863281 " fill-opacity="1" fill-rule="nonzero"/></svg>